<svg id="Layer_1" data-name="Layer 1" xmlns="http://www.w3.org/2000/svg" viewBox="0 0 199 199"><defs><style>.cls-1{fill:#db6825;}</style></defs><title>fighting-energy</title><circle class="cls-1" cx="99.5" cy="99.5" r="99.5"/><rect x="65.55" y="26.92" width="30.44" height="66.72" rx="6.75" ry="6.75"/><rect x="101.84" y="26.92" width="30.44" height="66.72" rx="6.75" ry="6.75"/><rect x="29.26" y="36.29" width="30.44" height="58.53" rx="6.75" ry="6.75"/><rect x="138.13" y="36.29" width="30.44" height="58.53" rx="6.75" ry="6.75"/><polygon points="35.7 160.96 29.85 153.93 29.85 109.45 36.87 102.43 95.4 102.43 101.26 108.28 101.26 123.5 96.57 130.52 80.19 130.52 74.33 137.54 74.33 152.76 67.31 160.96 35.7 160.96"/><polygon points="67.31 182.03 67.31 167.98 74.33 167.98 81.36 160.96 81.36 145.74 88.38 138.72 102.43 138.72 110.62 131.69 110.62 108.28 117.64 101.26 162.13 101.26 169.15 108.28 169.15 151.59 162.13 159.78 139.88 159.78 132.86 167.98 132.86 182.03 67.31 182.03"/></svg>