<?xml version="1.0" encoding="utf-8"?>
<!-- Generator: Adobe Illustrator 21.0.2, SVG Export Plug-In . SVG Version: 6.00 Build 0)  -->
<svg version="1.1" id="Layer_1" xmlns="http://www.w3.org/2000/svg" xmlns:xlink="http://www.w3.org/1999/xlink" x="0px" y="0px"
	 viewBox="0 0 199 199" style="enable-background:new 0 0 199 199;" xml:space="preserve">
<style type="text/css">
	.st0{fill:none;stroke:#000000;stroke-miterlimit:10;}
	.st1{fill:#3F662D;}
	.st2{fill:#D13C42;}
</style>
<g>
	<g>
		<circle class="st2" cx="99.5" cy="99.5" r="99.5"/>
	</g>
	<path d="M66,107.1c0,0-10.8-19.5,2.2-34.6s32.4-26,32.4-34.6s-8.7-21.6-8.7-21.6s45.4,13,36.8,80c0,2.2,36.8,0,38.9-21.6
		c0,0,23.8,26-23.8,56.2c0,0,13,8.7,41.1-15.1c0,0-15.1,54.1-62.7,64.9s-84.4-15.1-99.5-54.1c0,0,21.6,17.3,26,17.3s2.2-2.2,2.2-2.2
		s-45.4-41.1,2.2-80C53,61.6,35.7,91.9,66,107.1z"/>
	<g>
		<path class="st2" d="M107.1,102.7c0,0-34.6,15.1-23.8,28.1s2.2,19.5,2.2,19.5s-4.3-13-19.5-10.8c0,0,15.1,6.5,4.3,21.6
			c-10.8,15.1,17.3,19.5,17.3,19.5s13,2.2,28.1,0c15.1-2.2,15.1-6.5,15.1-6.5s8.7-4.3,0-15.1c-8.7-10.8-2.2-19.5-2.2-19.5l8.7-6.5
			c0,0-8.7-4.3-15.1,0c-6.5,4.3-8.7,8.7-8.7,8.7s0-10.8-6.5-15.1C100.6,122.2,96.3,117.9,107.1,102.7z"/>
	</g>
</g>
</svg>
