<svg id="Layer_1" data-name="Layer 1" xmlns="http://www.w3.org/2000/svg" viewBox="0 0 199 199"><defs><style>.cls-1{fill:#d13c42;}</style></defs><title>fire-energy-type-02</title><circle class="cls-1" cx="99.5" cy="99.5" r="99.5"/><path d="M66,107.07S55.16,87.6,68.14,72.46s32.45-26,32.45-34.61-8.65-21.63-8.65-21.63,45.42,13,36.77,80c0,2.16,36.77,0,38.93-21.63,0,0,23.79,26-23.79,56.24,0,0,13,8.65,41.1-15.14,0,0-15.14,54.08-62.73,64.89s-84.36-15.14-99.5-54.08c0,0,21.63,17.3,26,17.3s2.16-2.16,2.16-2.16-45.42-41.1,2.16-80C53,61.65,35.69,91.93,66,107.07Z"/><path class="cls-1" d="M107.07,102.74s-34.61,15.14-23.79,28.12,2.16,19.47,2.16,19.47-4.33-13-19.47-10.82c0,0,15.14,6.49,4.33,21.63s17.3,19.47,17.3,19.47a102.54,102.54,0,0,0,28.12,0c15.14-2.16,15.14-6.49,15.14-6.49s8.65-4.33,0-15.14-2.16-19.47-2.16-19.47l8.65-6.49s-8.65-4.33-15.14,0-8.65,8.65-8.65,8.65,0-10.82-6.49-15.14S96.26,117.89,107.07,102.74Z"/></svg>