<svg id="Layer_1" data-name="Layer 1" xmlns="http://www.w3.org/2000/svg" viewBox="0 0 199 199"><defs><style>.cls-1{fill:#3f662d;}</style></defs><title>leaf-energy-type-01</title><circle class="cls-1" cx="99.5" cy="99.5" r="99.5"/><path d="M130.06,4.79S16.5,45.5,14.5,96.5s26,59,49,68l4,25,26,7-3-28s82-4,87-40S167.61,69.07,130.06,4.79ZM153.5,129.5s-32-4-42-2-31,17-31,17l-2,28c-9-15-6-32-6-32-18-25-42-25-43-25,18.37-6.77,42.36,7,43,8,3-13,5-19,5-20-14-22-38-20-38-20,28-7,41,8,41,8s5-11,4-14c-5-16-26-21-26-21,12-6,33,9,33,9l24-39s-15,39-16,39c32-14,49,2,49,2-30-11-52,12-52,12s-3.4,11.91-3.93,13c39-18.93,63.93,7,63.93,7-38-17-69,9-69,9l-4,19C122.5,109.5,153.5,129.5,153.5,129.5Z"/></svg>