<?xml version="1.0" encoding="utf-8"?>
<!-- Generator: Adobe Illustrator 21.0.2, SVG Export Plug-In . SVG Version: 6.00 Build 0)  -->
<svg version="1.1" id="Layer_1" xmlns="http://www.w3.org/2000/svg" xmlns:xlink="http://www.w3.org/1999/xlink" x="0px" y="0px"
	 viewBox="0 0 199 199" style="enable-background:new 0 0 199 199;" xml:space="preserve">
<style type="text/css">
	.st0{fill:none;stroke:#000000;stroke-miterlimit:10;}
	.st1{fill:#3F662D;}
	.st2{fill:#D13C42;}
</style>
<g>
	<g>
		<circle class="st1" cx="99.5" cy="99.5" r="99.5"/>
	</g>
	<g>
		<path d="M130.1,4.8c0,0-113.6,40.7-115.6,91.7s26,59,49,68l4,25l26,7l-3-28c0,0,82-4,87-40S167.6,69.1,130.1,4.8z M153.5,129.5
			c0,0-32-4-42-2s-31,17-31,17l-2,28c-9-15-6-32-6-32c-18-25-42-25-43-25c18.4-6.8,42.4,7,43,8c3-13,5-19,5-20c-14-22-38-20-38-20
			c28-7,41,8,41,8s5-11,4-14c-5-16-26-21-26-21c12-6,33,9,33,9l24-39c0,0-15,39-16,39c32-14,49,2,49,2c-30-11-52,12-52,12
			s-3.4,11.9-3.9,13c39-18.9,63.9,7,63.9,7c-38-17-69,9-69,9l-4,19C122.5,109.5,153.5,129.5,153.5,129.5z"/>
	</g>
</g>
</svg>
