<svg id="Layer_1" data-name="Layer 1" xmlns="http://www.w3.org/2000/svg" viewBox="0 0 199 199"><defs><style>.cls-1{fill:#99567f;}</style></defs><title>psyhic-energy</title><circle class="cls-1" cx="99.5" cy="99.5" r="99.5"/><path d="M99,49.38C72.27,49.38,50.6,71.59,50.6,99S72.27,148.63,99,148.63,147.4,126.41,147.4,99,125.73,49.38,99,49.38Zm0,74a23.94,23.94,0,0,1-23.31-19.56,16.9,16.9,0,0,0,7.68,1.85,17.58,17.58,0,0,0,17.35-17.79,17.93,17.93,0,0,0-5.47-12.95,23.36,23.36,0,0,1,3.75-.3c13.13,0,23.77,10.91,23.77,24.38S112.13,123.38,99,123.38Z" transform="translate(0.5 0.5)"/><path d="M99,41.44c22.13,0,43.16,16,56.9,29.51a206,206,0,0,1,24.66,29.45A212.34,212.34,0,0,1,158.37,126c-14.32,14-36.24,30.58-59.37,30.58-22.57,0-43.4-14.55-56.9-26.75a169.59,169.59,0,0,1-25.24-28.58A198.07,198.07,0,0,1,42,70.93c13.7-13.46,34.72-29.5,57-29.5m0-15C44.09,26.44-.42,99.09-.42,101c0,4.18,44.51,70.58,99.42,70.58S198.42,101,198.42,101c0-1.9-44.86-74.55-99.42-74.55Z" transform="translate(0.5 0.5)"/></svg>